# xmcd
#
# Track frame offsets: 
#        150
#        15672
#        28275
#        44763
#        59597
#        75066
#        89252
#        106081
#        121315
#        137073
#
# Disc length: 2043 seconds
#
# Revision: 0
# Processed by: cddbd v1.5.2PL0 Copyright (c) Steve Scherf et al.
# Submitted via: ExactAudioCopy v0.95b4
#
DISCID=7c07f90a
DTITLE=Celilo - Buoy Bell
DYEAR=2011
DGENRE=Alternative
TTITLE0=Sunken Ships (Reprise)
TTITLE1=All Day Long
TTITLE2=Baroque Blues
TTITLE3=Street Sweeper Suite
TTITLE4=Axis
TTITLE5=Coho
TTITLE6=Four Fields Up
TTITLE7=Eerie Languor - American Wasteland
TTITLE8=Old Loves
TTITLE9=Buoy Bell
EXTD=
EXTT0=
EXTT1=
EXTT2=
EXTT3=
EXTT4=
EXTT5=
EXTT6=
EXTT7=
EXTT8=
EXTT9=
PLAYORDER=
